<svg xmlns="http://www.w3.org/2000/svg" viewBox="0 0 1200 620" role="img" aria-label="Makrly horizontal lockup spacing comparison">
  <rect width="1200" height="620" fill="#ffffff"/>
  <text x="40" y="48" fill="#6b7280" font-family="Arial, Helvetica, sans-serif" font-size="22" font-weight="700">Makrly lockup spacing compare (tight deltas)</text>

  <!-- A: -6px tighter than production -->
  <text x="40" y="98" fill="#111827" font-family="Arial, Helvetica, sans-serif" font-size="20" font-weight="700">A · tighter (-6px)</text>
  <g transform="translate(40,112)">
    <g transform="translate(8,10)">
      <g transform="scale(0.14)">
        <path d="M754.7 286.6 L310.4 707.1 L120.0 913.4 L286.6 913.4 L754.7 453.2 Z" fill="#19DEC1"/>
        <path d="M1072.1 366.0 L818.2 611.9 L818.2 786.4 L1072.1 540.5 Z" fill="#070D1F"/>
        <path d="M754.7 651.6 L683.3 707.1 L500.8 913.4 L699.2 913.4 L754.7 857.9 Z" fill="#070D1F"/>
        <path d="M1072.1 699.2 L849.9 913.4 L1032.4 913.4 L1072.1 873.7 Z" fill="#070D1F"/>
      </g>
      <text x="152" y="136" fill="#070D1F" font-family="Arial, Helvetica, sans-serif" font-size="118" font-weight="500" letter-spacing="-1.6">Makrly</text>
    </g>
  </g>

  <!-- B: production -->
  <text x="40" y="288" fill="#111827" font-family="Arial, Helvetica, sans-serif" font-size="20" font-weight="700">B · production (current)</text>
  <g transform="translate(40,302)">
    <g transform="translate(8,10)">
      <g transform="scale(0.14)">
        <path d="M754.7 286.6 L310.4 707.1 L120.0 913.4 L286.6 913.4 L754.7 453.2 Z" fill="#19DEC1"/>
        <path d="M1072.1 366.0 L818.2 611.9 L818.2 786.4 L1072.1 540.5 Z" fill="#070D1F"/>
        <path d="M754.7 651.6 L683.3 707.1 L500.8 913.4 L699.2 913.4 L754.7 857.9 Z" fill="#070D1F"/>
        <path d="M1072.1 699.2 L849.9 913.4 L1032.4 913.4 L1072.1 873.7 Z" fill="#070D1F"/>
      </g>
      <text x="158" y="128" fill="#070D1F" font-family="Arial, Helvetica, sans-serif" font-size="118" font-weight="500" letter-spacing="-1.6">Makrly</text>
    </g>
  </g>

  <!-- C: +6px wider than production -->
  <text x="40" y="478" fill="#111827" font-family="Arial, Helvetica,sans-serif" font-size="20" font-weight="700">C · wider (+6px)</text>
  <g transform="translate(40,492)">
    <g transform="translate(8,10)">
      <g transform="scale(0.14)">
        <path d="M754.7 286.6 L310.4 707.1 L120.0 913.4 L286.6 913.4 L754.7 453.2 Z" fill="#19DEC1"/>
        <path d="M1072.1 366.0 L818.2 611.9 L818.2 786.4 L1072.1 540.5 Z" fill="#070D1F"/>
        <path d="M754.7 651.6 L683.3 707.1 L500.8 913.4 L699.2 913.4 L754.7 857.9 Z" fill="#070D1F"/>
        <path d="M1072.1 699.2 L849.9 913.4 L1032.4 913.4 L1072.1 873.7 Z" fill="#070D1F"/>
      </g>
      <text x="164" y="136" fill="#070D1F" font-family="Arial, Helvetica, sans-serif" font-size="118" font-weight="500" letter-spacing="-1.6">Makrly</text>
    </g>
  </g>
</svg>
